<mxfile host="app.diagrams.net" modified="2022-11-09T20:05:04.937Z" agent="5.0 (X11; Linux x86_64) AppleWebKit/537.36 (KHTML, like Gecko) Chrome/107.0.0.0 Safari/537.36" etag="HuvRCXs44YOoU3yfoAk9" version="20.3.7" type="github">
  <diagram id="RVOrpe2lZKuH4orZrb2H" name="Page-1">
    <mxGraphModel dx="1449" dy="674" grid="1" gridSize="10" guides="1" tooltips="1" connect="1" arrows="1" fold="1" page="1" pageScale="1" pageWidth="850" pageHeight="1100" math="0" shadow="0">
      <root>
        <mxCell id="0" />
        <mxCell id="1" parent="0" />
      </root>
    </mxGraphModel>
  </diagram>
</mxfile>
